# xmcd CD database file
#
# Track frame offsets:
#	150
#	18025
#	36950
#	57950
#	77363
#	95925
#	117800
#	134603
#	153288
#	176425
#	196550
#	215000
#	229375
#	250265
#	270513
#	288733
#	307175
#	326638
#
# Disc length: 4693 seconds
#
# Revision: 0
# Processed by: cddbd v1.4b41PL1 Copyright (c) Steve Scherf et al.
# Submitted via: Feurio! 1.60.3ß - http://www.feurio.com
#
DISCID=00125312
DTITLE=Various Artist - Touch my Soul - The finest of Black Music Vol. 14 CD 2
DYEAR=1900
DGENRE=
TTITLE0=Janet Jackson feat. Q-Tip and Joni Mitchell - Got Til It's Gone
TTITLE1=Monica - Angel Of Mine
TTITLE2=R.Kelly - When A Woman's Fed Up
TTITLE3=Kelly Price - Friend Of Mine
TTITLE4=112 featuring LIL'Z - Anywhere
TTITLE5=Tyrese - Sweet Lady
TTITLE6=Joy Denalane - Time Heals The Pain
TTITLE7=Another Level - I Want You For Myself
TTITLE8=Chico Debarge - No Guarantee
TTITLE9=D-Zine - Runaway
TTITLE10=Sash Starr - Your Body
TTITLE11=Mobbs IV Real - Missing You
TTITLE12=Neresa Maye - Ultimate Love
TTITLE13=N'Dea Davenport - Whatever You Want
TTITLE14=Sparkle - Time To Move On
TTITLE15=Divine - Lately
TTITLE16=Keith Sweat - I'm Not Ready
TTITLE17=En Vogue - Let It Flow
EXTD=
EXTT0=
EXTT1=
EXTT2=
EXTT3=
EXTT4=
EXTT5=
EXTT6=
EXTT7=
EXTT8=
EXTT9=
EXTT10=
EXTT11=
EXTT12=
EXTT13=
EXTT14=
EXTT15=
EXTT16=
EXTT17=
PLAYORDER=
